<svg id="Layer_1" data-name="Layer 1" xmlns="http://www.w3.org/2000/svg" viewBox="0 0 74.92 74.92"><defs><style>.cls-1{fill:#cd5c5c;}.cls-2{fill:#cdf15c;}</style></defs><rect class="cls-1" width="74.92" height="74.92" rx="17.47"/><path class="cls-2" d="M25.76,28.29a49.22,49.22,0,0,1,9.54-.87c5.24,0,8.59.89,11.1,2.93a8.61,8.61,0,0,1,3.38,7.16c0,3.91-2.61,7.35-6.84,8.86v.16c3.85.93,8.35,4.1,8.35,10.15a10.6,10.6,0,0,1-3.46,8.05c-2.78,2.62-7.34,3.8-14,3.8a70.44,70.44,0,0,1-8.11-.45ZM31,44.85h4.78c5.47,0,8.71-2.9,8.71-6.83,0-4.68-3.56-6.58-8.84-6.58a21.66,21.66,0,0,0-4.65.37ZM31,64.2a24.61,24.61,0,0,0,4.4.26c5.42,0,10.4-2,10.4-7.87,0-5.49-4.76-7.8-10.46-7.81H31Z" transform="translate(-13.15 -12.54)"/><path class="cls-2" d="M57.38,62.8a14.39,14.39,0,0,0,7,2.07c3.85,0,5.64-1.9,5.64-4.33s-1.54-3.86-5.39-5.31c-5.24-1.9-7.73-4.75-7.71-8.23,0-4.67,3.79-8.5,10-8.5a14.08,14.08,0,0,1,7.11,1.78l-1.31,3.84a11.41,11.41,0,0,0-5.95-1.71c-3.12,0-4.81,1.79-4.81,4,0,2.4,1.71,3.48,5.51,5,5,1.86,7.6,4.39,7.61,8.72,0,5.14-4,8.74-10.85,8.74a16.52,16.52,0,0,1-8.15-2Z" transform="translate(-13.15 -12.54)"/></svg>